Coordinates
version=1
nRows=4
nColumns=107
inDegrees=yes

Units are S.I. units (second, meters, Newtons, ...)
If the header above contains a line with 'inDegrees', this indicates whether rotational values are in degrees (yes) or radians (no).

endheader
time	sternoclavicular_r2	sternoclavicular_r3	unrotscap_r3	unrotscap_r2	acromioclavicular_r2	acromioclavicular_r3	acromioclavicular_r1	unrothum_r1	unrothum_r3	unrothum_r2	elv_angle	shoulder_elv	shoulder1_r2	shoulder_rot	elbow_flexion	pro_sup	deviation	flexion	proximal_distal_r1	proximal_distal_r3	cmc_flexion	cmc_abduction	mp_flexion	ip_flexion	mcp2_flexion	mcp2_abduction	pm2_flexion	md2_flexion	mcp3_flexion	mcp3_abduction	pm3_flexion	md3_flexion	mcp4_flexion	mcp4_abduction	pm4_flexion	md4_flexion	mcp5_flexion	mcp5_abduction	pm5_flexion	md5_flexion	bicpt_tx	bicpt_ty	bicpt_tz	bicpt2_tx	bicpt2_ty	bicpt2_tz	ptpt_tx	ptpt_ty	ptpt_tz	FCUpt_tx	FCUpt_ty	FCUpt_tz	EDCpt_tx	EDCpt_ty	EDCpt_tz	APLpt_tx	APLpt_ty	APLpt_tz	FPLpt_tx	FPLpt_ty	FPLpt_tz	FPLpt2_tx	FPLpt2_ty	FPLpt2_tz	PEC1pt2_tx	PEC1pt2_ty	PEC1pt2_tz	PEC1pt3_tx	PEC1pt3_ty	PEC1pt3_tz	PEC2pt2_tx	PEC2pt2_ty	PEC2pt2_tz	PEC2pt3_tx	PEC2pt3_ty	PEC2pt3_tz	PEC3pt2_tx	PEC3pt2_ty	PEC3pt2_tz	PEC3pt3_tx	PEC3pt3_ty	PEC3pt3_tz	DELT2pt2a_tx	DELT2pt2a_ty	DELT2pt2a_tz	DELT2pt2_tx	DELT2pt2_ty	DELT2pt2_tz	LAT1pt2_tx	LAT1pt2_ty	LAT1pt2_tz	LAT1pt3_tx	LAT1pt3_ty	LAT1pt3_tz	LAT2pt2_tx	LAT2pt2_ty	LAT2pt2_tz	LAT2pt3_tx	LAT2pt3_ty	LAT2pt3_tz	LAT3pt2_tx	LAT3pt2_ty	LAT3pt2_tz	LAT3pt3_tx	LAT3pt3_ty	LAT3pt3_tz
      0.53333333	     -0.33055301	      0.14000665	     -0.14000665	      0.33055301	     -0.06693026	      0.54090682	      0.24313389	     -0.24313389	     -0.54090682	      0.06693026	     98.58358936	     78.26136257	     -1.72060822	    -15.68303503	     27.15136268	     38.31775139	      0.18055546	     -0.04860899	      0.21835562	     -0.02430449	     29.80478542	    -21.05060629	      7.02886662	      1.19273389	     -2.53347562	      0.29721157	     12.90211304	    -39.03283596	    -10.30388245	     -2.66291072	      7.13905107	     10.34366983	    -10.62633020	      1.46937782	    -11.81366295	     20.82068321	    -25.44031932	      0.18290455	      4.69950832	      4.95450630	      0.00079808	     -0.03071196	     -0.00480126	      0.01656803	     -0.01757580	     -0.00764763	      0.00471875	     -0.06673073	     -0.00313670	      0.00761131	     -0.18352966	     -0.00037341	     -0.00459812	      0.00131225	      0.00015773	      0.00004776	      0.00001910	      0.00009551	      0.00006113	      0.00018338	      0.00010315	     -0.00000828	     -0.00025161	     -0.00030193	      0.00256524	      0.00900006	      0.00626091	     -0.00839136	      0.02026101	     -0.01921753	      0.00256524	      0.00900006	      0.00626091	      0.00056522	      0.01878274	     -0.00986964	      0.00402642	      0.00500482	      0.01615626	      0.00000000	      0.00819438	      0.00000000	     -0.00734788	     -0.03395676	     -0.00675887	      0.01116050	     -0.00030320	     -0.00195167	     -0.00091305	      0.01530446	     -0.00626091	      0.00252176	      0.02208711	     -0.01826100	     -0.00613048	      0.01326096	     -0.00560874	     -0.01278270	      0.02800020	     -0.03134805	     -0.02400017	      0.01482619	     -0.00752179	     -0.01591316	      0.03234806	     -0.03917419
      0.56666667	     -0.33067097	      0.14005662	     -0.14005662	      0.33067097	     -0.06695415	      0.54109985	      0.24322066	     -0.24322066	     -0.54109985	      0.06695415	     98.52505687	     78.28929226	     -1.71958664	    -15.73417196	     27.35253439	     38.90636392	      0.18645537	     -0.02237242	      0.22459031	     -0.01118621	     30.41530520	    -21.08281631	      6.16990166	      1.59211620	     -2.29429768	     -0.03541048	     12.34495440	    -37.95991538	    -10.21916409	     -2.62299862	      7.15463167	      9.86100178	    -10.33511502	      1.07027257	    -11.14864321	     19.95963384	    -24.98555129	     -0.24281323	      4.32286882	      4.95316523	      0.00080474	     -0.03073502	     -0.00480497	      0.01657100	     -0.01763045	     -0.00758594	      0.00467526	     -0.06675886	     -0.00318412	      0.00767032	     -0.18351764	     -0.00037821	     -0.00466875	      0.00133594	      0.00015395	      0.00002247	      0.00000899	      0.00004494	      0.00002876	      0.00008629	      0.00004854	     -0.00000909	     -0.00024644	     -0.00029573	      0.00256615	      0.00900328	      0.00626315	     -0.00839436	      0.02026825	     -0.01922439	      0.00256615	      0.00900328	      0.00626315	      0.00056542	      0.01878945	     -0.00987316	      0.00402745	      0.00500661	      0.01615871	      0.00000000	      0.00820027	      0.00000000	     -0.00735050	     -0.03396888	     -0.00676376	      0.01119294	     -0.00030468	     -0.00196578	     -0.00091338	      0.01530992	     -0.00626315	      0.00252266	      0.02209500	     -0.01826752	     -0.00613267	      0.01326570	     -0.00561074	     -0.01278726	      0.02801019	     -0.03135924	     -0.02400874	      0.01483148	     -0.00752448	     -0.01591884	      0.03235960	     -0.03918817
      0.60000000	     -0.33067797	      0.14005958	     -0.14005958	      0.33067797	     -0.06695556	      0.54111130	      0.24322580	     -0.24322580	     -0.54111130	      0.06695556	     98.65391824	     78.29094792	     -1.72183569	    -15.61120521	     26.96403762	     38.24738621	      0.18220858	     -0.04266519	      0.22010830	     -0.02133260	     30.40464205	    -21.27082258	      6.90689501	     -0.06333721	     -3.16316599	      0.74789655	     13.85438655	    -38.61430450	    -10.99535406	     -2.12788393	      8.38352507	     12.06651059	    -10.97740541	      1.62420691	    -11.59619081	     22.18546661	    -25.62096168	      0.52404191	      4.26970349	      4.94244339	      0.00079189	     -0.03069049	     -0.00479780	      0.01656762	     -0.01752491	     -0.00765497	      0.00472395	     -0.06672737	     -0.00313103	      0.00760426	     -0.18353109	     -0.00037282	     -0.00458968	      0.00130942	      0.00015817	      0.00004215	      0.00001686	      0.00008430	      0.00005395	      0.00016185	      0.00009104	     -0.00000908	     -0.00024654	     -0.00029585	      0.00256621	      0.00900347	      0.00626328	     -0.00839454	      0.02026867	     -0.01922479	      0.00256621	      0.00900347	      0.00626328	      0.00056544	      0.01878984	     -0.00987337	      0.00402752	      0.00500671	      0.01615885	      0.00000000	      0.00820062	      0.00000000	     -0.00735066	     -0.03396960	     -0.00676404	      0.01111495	     -0.00030113	     -0.00193181	     -0.00091340	      0.01531024	     -0.00626328	      0.00252271	      0.02209546	     -0.01826790	     -0.00613280	      0.01326598	     -0.00561086	     -0.01278753	      0.02801079	     -0.03135990	     -0.02400924	      0.01483180	     -0.00752464	     -0.01591917	      0.03236029	     -0.03918900
      0.63333333	     -0.33063387	      0.14004090	     -0.14004090	      0.33063387	     -0.06694663	      0.54103914	      0.24319337	     -0.24319337	     -0.54103914	      0.06694663	     98.65011215	     78.28050836	     -1.72176926	    -15.61032485	     26.96035716	     38.24693657	      0.18218520	     -0.04262638	      0.22008352	     -0.02131319	     30.40463350	    -21.27053767	      6.90690289	     -0.06316980	     -3.16246723	      0.74764084	     13.85426778	    -38.61414326	    -10.99288155	     -2.12783574	      8.38337503	     12.06618794	    -10.97617880	      1.62364787	    -11.59568669	     22.18533025	    -25.62045575	      0.52357314	      4.26982627	      4.94247141	      0.00079176	     -0.03069007	     -0.00479773	      0.01656762	     -0.01752391	     -0.00765502	      0.00472398	     -0.06672735	     -0.00313100	      0.00760422	     -0.18353110	     -0.00037282	     -0.00458962	      0.00130940	      0.00015817	      0.00004209	      0.00001684	      0.00008418	      0.00005388	      0.00016163	      0.00009092	     -0.00000908	     -0.00024654	     -0.00029584	      0.00256586	      0.00900227	      0.00626245	     -0.00839342	      0.02026597	     -0.01922223	      0.00256586	      0.00900227	      0.00626245	      0.00056536	      0.01878734	     -0.00987205	      0.00402713	      0.00500605	      0.01615794	      0.00000000	      0.00819842	      0.00000000	     -0.00734968	     -0.03396507	     -0.00676222	      0.01111431	     -0.00030110	     -0.00193168	     -0.00091327	      0.01530820	     -0.00626245	      0.00252237	      0.02209252	     -0.01826547	     -0.00613198	      0.01326421	     -0.00561011	     -0.01278583	      0.02800705	     -0.03135572	     -0.02400604	      0.01482982	     -0.00752363	     -0.01591705	      0.03235597	     -0.03918378
